<svg width="72" height="72" viewBox="0 0 72 72" fill="none" xmlns="http://www.w3.org/2000/svg">
<path d="M38.1019 44.1613H33.7015C33.7015 36.0814 36.1522 28.015 41.5739 22.1105C42.4235 20.9541 42.9253 19.5263 42.9253 17.9813C42.9253 14.1256 39.7997 11 35.944 11C32.0883 11 28.9627 14.1256 28.9627 17.9813C28.9627 19.8836 29.7236 21.6082 30.9575 22.8674C26.5965 25.9763 18.4907 34.3096 18.4907 44.7431C18.4907 55.2723 26.7459 59.5351 31.0765 60.4102L15 63.2542V71.5049L56.888 71.5049V63.2542L40.4302 60.3678C44.8099 59.4038 52.8156 55.112 52.8156 44.7431C52.8156 37.9538 49.6528 31.9017 45.8025 27.5013C41.5739 30.8016 38.1019 38.5022 38.1019 44.1613Z" fill="#34364C"/>
</svg>
