<svg width="72" height="72" viewBox="0 0 72 72" fill="none" xmlns="http://www.w3.org/2000/svg">
<path fill-rule="evenodd" clip-rule="evenodd" d="M32.2251 8H38.8249L38.9967 13.4998H45.4246V20.0995H39.203L39.5052 27.5715C39.6258 27.4294 39.75 27.2901 39.878 27.1541C45.8873 20.7673 54.797 17.3686 61.374 22.8494C67.9737 28.3492 67.9737 40.9987 58.8867 48.3147C53.7392 52.4589 49.1285 56.4541 49.3557 62.2973L58.6015 63.5478V71.7975H12.4485V63.5478L21.6943 62.2973C21.9215 56.4541 17.3108 52.4589 12.1633 48.3147C3.07628 40.9987 3.07628 28.3492 9.67602 22.8494C16.253 17.3686 25.1627 20.7673 31.172 27.1541C31.3 27.2901 31.4242 27.4294 31.5448 27.5715L31.847 20.0995H25.6254V13.4998H32.0533L32.2251 8ZM26.0082 33.2695C30.0414 39.8758 30.5752 47.5984 30.5752 50.9568C28.5536 50.9605 20.9328 47.6078 16.8979 42.1038C13.9931 38.1412 13.2357 32.2622 15.7258 29.9799C18.2158 27.6975 23.4875 29.1405 26.0082 33.2695ZM45.0418 33.2695C41.0086 39.8758 40.4748 47.5984 40.4748 50.9568C42.4964 50.9605 50.1172 47.6078 54.1521 42.1038C57.0569 38.1412 57.8143 32.2622 55.3242 29.9799C52.8341 27.6975 47.5625 29.1405 45.0418 33.2695Z" fill="#34364C"/>
</svg>
