<svg width="72" height="73" viewBox="0 0 72 73" fill="none" xmlns="http://www.w3.org/2000/svg">
<path fill-rule="evenodd" clip-rule="evenodd" d="M42.451 20.5912L32.513 9C31.0744 11.7311 29.6798 16.5512 31.6849 20.0309C30.7117 20.1175 29.7816 20.2821 29.0622 20.5708C24.4725 22.4127 19.4364 27.1714 16.9612 37.0721C16.2445 39.939 14.9545 41.3119 13.4214 42.9436C11.9751 44.4828 10.3125 46.2522 8.71057 49.7232C5.41031 56.8737 14.317 64.0243 20.8115 57.5297C24.4629 53.8784 27.6545 52.371 30.3341 51.1055C34.1908 49.284 36.9868 47.9635 38.5662 41.4725C39.3177 44.5002 39.0171 51.6458 31.8034 56.0057C24.5897 60.3657 23.0869 69.5499 23.2371 72.2749H64.265C64.265 46.4044 60.8399 24.0524 42.451 20.5912Z" fill="#34364C"/>
</svg>
