<svg width="72" height="73" viewBox="0 0 72 73" fill="none" xmlns="http://www.w3.org/2000/svg">
<path d="M47.0048 25.8952C47.0048 29.0552 45.6595 31.9009 43.5105 33.891L49.0476 37.7995V44.9619H43.627C43.8884 48.2819 46.0186 51.6045 48.775 54.5026C51.7002 57.5783 55.2196 60.0589 57.5569 61.3945L57.9 61.5905V72.2H15V61.5905L15.3431 61.3945C17.6804 60.0589 21.1998 57.5783 24.125 54.5026C26.8814 51.6045 29.0116 48.2819 29.273 44.9619H23.8524V37.7995L29.0092 34.1594C26.6857 32.1613 25.2143 29.2001 25.2143 25.8952C25.2143 19.878 30.0923 15 36.1095 15C42.1268 15 47.0048 19.878 47.0048 25.8952Z" fill="#34364C"/>
</svg>
