<svg width="72" height="72" viewBox="0 0 72 72" fill="none" xmlns="http://www.w3.org/2000/svg">
<path d="M28.1743 19.635C30.2365 18.8416 31.7 16.8417 31.7 14.5C31.7 11.4624 29.2376 9 26.2 9C23.1624 9 20.7 11.4624 20.7 14.5C20.7 17.307 22.8029 19.6229 25.5192 19.9583L23.0664 39.8L11.2424 29.5305C12.3236 28.5261 13 27.0921 13 25.5C13 22.4624 10.5376 20 7.5 20C4.46243 20 2 22.4624 2 25.5C2 28.5376 4.46243 31 7.5 31C8.03472 31 8.55162 30.9237 9.0404 30.7814L15.2 51.9L21.5697 62.3231L15.2 63.45V71.7L57.0846 71.7V63.45L50.6331 62.3185L57 51.9L63.1596 30.7814C63.6484 30.9237 64.1653 31 64.7 31C67.7376 31 70.2 28.5376 70.2 25.5C70.2 22.4624 67.7376 20 64.7 20C61.6624 20 59.2 22.4624 59.2 25.5C59.2 27.0921 59.8764 28.5261 60.9576 29.5305L49.1336 39.8L46.6808 19.9583C49.3971 19.6229 51.5 17.307 51.5 14.5C51.5 11.4624 49.0376 9 46 9C42.9624 9 40.5 11.4624 40.5 14.5C40.5 16.8417 41.9635 18.8416 44.0257 19.635L36.1 37.6L28.1743 19.635Z" fill="#34364C"/>
</svg>
